<svg width="360" height="250" viewBox="0 0 360 250" fill="none" xmlns="http://www.w3.org/2000/svg">
<circle cx="180.541" cy="125.24" r="96.5006" fill="url(#paint0_radial_20_102)"/>
<circle cx="180.041" cy="124.74" r="96.0006" transform="rotate(-21.75 180.041 124.74)" fill="url(#paint1_radial_20_102)"/>
<path fill-rule="evenodd" clip-rule="evenodd" d="M358.359 52.8529C349.085 37.2027 264.555 55.4026 167.255 94.224C68.3487 133.686 -6.3174 179.519 0.422684 196.624L90.7625 160.338C89.094 151.432 125.733 129.155 173.946 109.92C221.347 91.0091 262.657 81.9316 268.71 88.8618L358.359 52.8529Z" fill="url(#paint2_radial_20_102)"/>
<path fill-rule="evenodd" clip-rule="evenodd" d="M269.207 89.1663C269.207 89.1663 269.207 89.1662 269.207 89.1662C249.56 39.9211 193.712 15.9269 144.467 35.5737C95.2222 55.2205 71.228 111.069 90.8748 160.314L269.207 89.1663Z" fill="url(#paint3_radial_20_102)"/>
<path fill-rule="evenodd" clip-rule="evenodd" d="M0.306641 196.302C0.344849 196.419 0.386658 196.534 0.432068 196.648C7.24954 213.735 92.992 195.582 191.943 156.102C290.894 116.622 365.583 70.7656 358.766 53.6785C358.61 53.2868 358.412 52.9137 358.173 52.5589L268.453 88.5965C268.817 88.9355 269.085 89.3176 269.255 89.7438C272.648 98.2476 235.477 121.068 186.232 140.715C136.987 160.362 94.3155 169.395 90.9228 160.891C90.8089 160.606 90.7408 160.304 90.7172 159.987L0.306641 196.302Z" fill="url(#paint4_radial_20_102)"/>
<defs>
<radialGradient id="paint0_radial_20_102" cx="0" cy="0" r="1" gradientUnits="userSpaceOnUse" gradientTransform="translate(180.541 125.24) rotate(90) scale(96.5006)">
<stop offset="0.805"/>
<stop offset="1" stop-color="#11FFE2"/>
</radialGradient>
<radialGradient id="paint1_radial_20_102" cx="0" cy="0" r="1" gradientUnits="userSpaceOnUse" gradientTransform="translate(162.346 214.859) rotate(-78.8912) scale(91.8394 102.383)">
<stop stop-color="#1D251D"/>
<stop offset="0.38" stop-color="#171C14"/>
<stop offset="0.688457" stop-color="#1B1B1B"/>
<stop offset="1" stop-color="#181818"/>
</radialGradient>
<radialGradient id="paint2_radial_20_102" cx="0" cy="0" r="1" gradientUnits="userSpaceOnUse" gradientTransform="translate(179.599 125.163) rotate(-21.7512) scale(192.901 33.3107)">
<stop stop-color="#737373"/>
<stop offset="0.655" stop-color="#6E33ED"/>
<stop offset="0.85" stop-color="#5D11FF"/>
<stop offset="1" stop-color="#11FFE2"/>
</radialGradient>
<radialGradient id="paint3_radial_20_102" cx="0" cy="0" r="1" gradientUnits="userSpaceOnUse" gradientTransform="translate(142.938 36.4822) rotate(64.5028) scale(81.4506 181.419)">
<stop stop-color="#222422"/>
<stop offset="0.252144" stop-color="#1B1D19"/>
<stop offset="0.491429" stop-color="#1B1B1B"/>
<stop offset="1" stop-color="#181818"/>
</radialGradient>
<radialGradient id="paint4_radial_20_102" cx="0" cy="0" r="1" gradientUnits="userSpaceOnUse" gradientTransform="translate(179.599 125.163) rotate(-21.7512) scale(192.901 33.3107)">
<stop stop-color="#737373"/>
<stop offset="0.655" stop-color="#6E33ED"/>
<stop offset="0.85" stop-color="#5D11FF"/>
<stop offset="1" stop-color="#11FFE2"/>
</radialGradient>
</defs>
</svg>
